#define close_width  9
#define close_height 9
static unsigned char close_bits[] = {
 0x7c,0xfe,0x82,0xfe,0x01,0xff,0x01,0xff,0x01,0xff,0x01,0xff,
 0x01,0xff,0x82,0xfe,0x7c,0xfe};
