#define close_width  11
#define close_height 11
static unsigned char close_bits[] = {
 0xfc,0xf9,0x02,0xfa,0x01,0xfc,0x01,0xfc,0x01,0xfc,0x01,0xfc,
 0x01,0xfc,0x01,0xfc,0x01,0xfc,0x02,0xfa,0xfc,0xf9};
