#define close_width  11
#define close_height 11
static unsigned char close_bits[] = {
 0x20,0xf8,0x50,0xf8,0x50,0xf8,0x88,0xf8,0xa8,0xf8,0x24,0xf9,
 0x74,0xf9,0x72,0xfa,0xfa,0xfa,0x01,0xfc,0xff,0xff};
