#define close_width  9
#define close_height 9
static unsigned char close_bits[] = {
 0x03,0xfe,0x0f,0xfe,0x3f,0xfe,0xff,0xfe,0xff,0xff,0xff,0xfe,
 0x3f,0xfe,0x0f,0xfe,0x03,0xfe};
