#define close_width  11
#define close_height 11
static unsigned char close_bits[] = {
 0x20,0xf8,0x50,0xf8,0xa8,0xf8,0x74,0xf9,0xfa,0xfa,0xfd,0xfd,
 0xfa,0xfa,0x74,0xf9,0xa8,0xf8,0x50,0xf8,0x20,0xf8};
