#define close_width  11
#define close_height 11
static unsigned char close_bits[] = {
 0x00,0xf8,0x00,0xfc,0x00,0xfe,0x00,0xff,0xff,0xff,0xff,0xff,
 0xff,0xff,0x00,0xff,0x00,0xfe,0x00,0xfc,0x00,0xf8};
