#define close_width  11
#define close_height 11
static unsigned char close_bits[] = {
 0x70,0xf8,0x8c,0xf9,0x72,0xfa,0xfa,0xfa,0xfd,0xfd,0xfd,0xfd,
 0xfd,0xfd,0xfa,0xfa,0x72,0xfa,0x8c,0xf9,0x70,0xf8};
