#define close_width  11
#define close_height 11
static unsigned char close_bits[] = {
 0x00,0xf8,0x01,0xfc,0x03,0xfe,0x07,0xff,0xff,0xff,0xff,0xff,
 0xff,0xff,0x07,0xff,0x03,0xfe,0x01,0xfc,0x00,0xf8};
