#define close_width  9
#define close_height 9
static unsigned char close_bits[] = {
 0x10,0xfe,0x38,0xfe,0x38,0xfe,0x7c,0xfe,0x7c,0xfe,0xfe,0xfe,
 0xfe,0xfe,0xff,0xff,0xff,0xff};
