#define close_width  9
#define close_height 9
static unsigned char close_bits[] = {
 0x10,0xfe,0x38,0xfe,0x28,0xfe,0x6c,0xfe,0x44,0xfe,0xc6,0xfe,
 0x82,0xfe,0x83,0xff,0xff,0xff};
