/* XPM */
static char * close_xpm[] = {
"38 38 5 1",
" 	c None",
".	c #C0C0FE s active_color_2",
"#	c #323331 s active_color_2",
"$	c #4C4E59 s active_color_2",
"+	c #DC3231",
"                                      ",
"                                      ",
"                                      ",
"                                      ",
"  ..................................  ",
" .................................... ",
"......................................",
"......................................",
"......................................",
"......................................",
"......................................",
"...........++++++++++++++++...........",
"...........++++++++++++++++...........",
"...........++++++++++++++++...........",
"...........++++++++++++++++...........",
"...........++++$$++++$$++++...........",
"...........++++$#$++$#$++++...........",
"...........+++++$#$$#$+++++...........",
"...........++++++$##$++++++...........",
"...........++++++$##$++++++...........",
"...........+++++$#$$#$+++++...........",
"...........++++$#$++$#$++++...........",
"...........++++$$++++$$++++...........",
"...........++++++++++++++++...........",
"...........++++++++++++++++...........",
"...........++++++++++++++++...........",
"...........++++++++++++++++...........",
"......................................",
"......................................",
"......................................",
"......................................",
"......................................",
"......................................",
"......................................",
"......................................",
"......................................",
"......................................",
"......................................"};
