/* XPM */
static char * minimize_xpm[] = {
"38 38 3 1",
" 	c None",
".	c #C0C0FF s inactive_color_2",
"+	c #333333 s inactive_text_color",
"                                      ",
"                                      ",
"                                      ",
"                                      ",
"    ..............................    ",
"    ..............................    ",
"    ..............................    ",
"    ..............................    ",
"    ..............................    ",
"    ..............................    ",
"    ..............................    ",
"    ..............................    ",
"    ..............................    ",
"    ..............................    ",
"    ..............................    ",
"    ..............................    ",
"    ..............................    ",
"    ..............................    ",
"    ...........++++++++...........    ",
"    ...........++++++++...........    ",
"    ..............................    ",
"    ..............................    ",
"    ..............................    ",
"    ..............................    ",
"    ..............................    ",
"    ..............................    ",
"    ..............................    ",
"    ..............................    ",
"    ..............................    ",
"    ..............................    ",
"    ..............................    ",
"    ..............................    ",
"    ..............................    ",
"    ..............................    ",
"                                      ",
"                                      ",
"                                      ",
"                                      "};
