/* XPM */
static char * minimize_xpm[] = {
"38 38 3 1",
" 	c None",
".	c #C0C0FF s active_color_2",
"+	c #333333 s active_text_color",
"                                      ",
"                                      ",
"                                      ",
"                                      ",
"    ..............................    ",
"    ..............................    ",
"    ..............................    ",
"    ..............................    ",
"    ..............................    ",
"    ..............................    ",
"    ..............................    ",
"    ..............................    ",
"    ..............................    ",
"    ..............................    ",
"    ..............................    ",
"    ..............................    ",
"    ..............................    ",
"    ..............................    ",
"    ...........++++++++...........    ",
"    ...........++++++++...........    ",
"    ..............................    ",
"    ..............................    ",
"    ..............................    ",
"    ..............................    ",
"    ..............................    ",
"    ..............................    ",
"    ..............................    ",
"    ..............................    ",
"    ..............................    ",
"    ..............................    ",
"    ..............................    ",
"    ..............................    ",
"    ..............................    ",
"    ..............................    ",
"                                      ",
"                                      ",
"                                      ",
"                                      "};
