/* XPM */
static char * menu_active_xpm[] = {
"38 38 4 1",
" 	c None",
".	c #C0C0FF s active_color_2",
"#	c #333333 s active_text_color",
"$	c #626277 s active_text_color",
"                                      ",
"                                      ",
"                                      ",
"                                      ",
"    ..............................    ",
"    ..............................    ",
"    ..............................    ",
"    ..............................    ",
"    ..............................    ",
"    ..............................    ",
"    ..............................    ",
"    ..............................    ",
"    ..............................    ",
"    ..............................    ",
"    ..............................    ",
"    ..............................    ",
"    ..............................    ",
"    ..........$########$..........    ",
"    ...........$######$...........    ",
"    ............$####$............    ",
"    .............$##$.............    ",
"    ..............$$..............    ",
"    ..............................    ",
"    ..............................    ",
"    ..............................    ",
"    ..............................    ",
"    ..............................    ",
"    ..............................    ",
"    ..............................    ",
"    ..............................    ",
"    ..............................    ",
"    ..............................    ",
"    ..............................    ",
"    ..............................    ",
"                                      ",
"                                      ",
"                                      ",
"                                      "};
