/* XPM */
static char * top_right_inactive_xpm[] = {
"9 39 2 1",
"       c None",
".      c #C0C0FF s inactive_color_2",
"...      ",
".....    ",
"......   ",
".......  ",
"........ ",
"........ ",
".........",
".........",
".........",
".........",
".........",
".........",
".........",
".........",
".........",
".........",
".........",
".........",
".........",
".........",
".........",
".........",
".........",
".........",
".........",
".........",
".........",
".........",
".........",
".........",
".........",
".........",
".........",
".........",
".........",
".........",
".........",
".........",
"........."};
