<?xml version="1.0" encoding="UTF-8" standalone="no"?>
<svg
   xmlns:dc="http://purl.org/dc/elements/1.1/"
   xmlns:cc="http://creativecommons.org/ns#"
   xmlns:rdf="http://www.w3.org/1999/02/22-rdf-syntax-ns#"
   xmlns:svg="http://www.w3.org/2000/svg"
   xmlns="http://www.w3.org/2000/svg"
   xmlns:sodipodi="http://sodipodi.sourceforge.net/DTD/sodipodi-0.dtd"
   xmlns:inkscape="http://www.inkscape.org/namespaces/inkscape"
   sodipodi:docname="toggle-on.svg"
   inkscape:version="1.0 (4035a4fb49, 2020-05-01)"
   id="svg8"
   version="1.1"
   viewBox="0 0 12.7 6.8791669"
   height="26"
   width="48">
  <defs
     id="defs2" />
  <sodipodi:namedview
     inkscape:document-rotation="0"
     inkscape:window-maximized="1"
     inkscape:window-y="0"
     inkscape:window-x="0"
     inkscape:window-height="1353"
     inkscape:window-width="3440"
     units="px"
     showgrid="false"
     inkscape:current-layer="layer1"
     inkscape:document-units="mm"
     inkscape:cy="20.663523"
     inkscape:cx="11.963384"
     inkscape:zoom="15.839192"
     inkscape:pageshadow="2"
     inkscape:pageopacity="0.0"
     borderopacity="1.0"
     bordercolor="#666666"
     pagecolor="#ffffff"
     id="base" />
  <metadata
     id="metadata5">
    <rdf:RDF>
      <cc:Work
         rdf:about="">
        <dc:format>image/svg+xml</dc:format>
        <dc:type
           rdf:resource="http://purl.org/dc/dcmitype/StillImage" />
        <dc:title />
      </cc:Work>
    </rdf:RDF>
  </metadata>
  <g
     transform="translate(0,-290.12082)"
     id="layer1"
     inkscape:groupmode="layer"
     inkscape:label="Layer 1">
    <rect
       style="opacity:1;fill:#ffffff;fill-opacity:1;stroke:none;stroke-width:0.30235311;stroke-opacity:1"
       id="rect918"
       width="12.7"
       height="6.8791666"
       x="0"
       y="290.12082"
       ry="3.4395833" />
    <rect
       ry="3.4395833"
       y="290.12082"
       x="0"
       height="6.8791666"
       width="12.7"
       id="rect815"
       style="opacity:1;fill:#15a6f0;fill-opacity:1;stroke:none;stroke-width:0.30235311;stroke-opacity:1" />
    <path
       sodipodi:nodetypes="ccscccsccscccsccscccscsscccscc"
       style="opacity:1;fill:#ffffff;fill-opacity:1;stroke-width:0.08278181"
       inkscape:connector-curvature="0"
       id="path27"
       d="m 10.269023,294.36289 -0.212119,0.20624 c -0.03315,0.0331 -0.08289,0.0496 -0.1243344,0.0496 -0.04973,0 -0.09118,-0.0165 -0.124336,-0.0496 L 9.2604162,294.01397 8.70197,294.56913 c -0.033159,0.0331 -0.082891,0.0496 -0.124334,0.0496 -0.04973,0 -0.091181,-0.0165 -0.1243344,-0.0496 l -0.2014853,-0.20998 c -0.033155,-0.0331 -0.049733,-0.0827 -0.049733,-0.12401 0,-0.0413 0.016583,-0.0909 0.04973,-0.12401 l 0.5550324,-0.55073 -0.5550324,-0.55648 c -0.03315,-0.0331 -0.04973,-0.0827 -0.04973,-0.12401 0,-0.0413 0.016583,-0.091 0.04973,-0.12401 l 0.2068165,-0.20423 c 0.033159,-0.0331 0.082891,-0.0496 0.1243339,-0.0496 0.04973,0 0.091182,0.0165 0.1243345,0.0496 l 0.5531188,0.55516 0.5675366,-0.55516 c 0.03316,-0.0331 0.08289,-0.0496 0.124336,-0.0496 0.04973,0 0.09118,0.0165 0.1243344,0.0496 l 0.192397,0.21945 c 0.03087,0.0352 0.04973,0.0827 0.04973,0.12401 0,0.0413 -0.01658,0.0909 -0.04973,0.12401 l -0.5550319,0.54126 0.5550319,0.55447 c 0.03316,0.0331 0.04973,0.0827 0.04973,0.12401 0,0.0413 -0.01658,0.0909 -0.04973,0.12401 z"
       class="st2" />
    <circle
       r="2.3812499"
       cy="293.56039"
       cx="9.260417"
       id="path817"
       style="opacity:1;fill:#ffffff;fill-opacity:1;stroke:none;stroke-width:0.31562683;stroke-opacity:1" />
  </g>
</svg>
