/* XPM */
static char * bottom_right_inactive_xpm[] = {
"16 16 2 1",
" 	c None",
".	c #C0C0FF s inactive_color_2",
"               .",
"               .",
"               .",
"               .",
"               .",
"               .",
"               .",
"               .",
"               .",
"               .",
"               .",
"               .",
"               .",
"               .",
"               .",
"................"};
