/* XPM */
static char * close_xpm[] = {
"38 38 4 1",
" 	c None",
".	c #C0C0FE s active_color_2",
"#	c #323331 s active_text_color",
"$	c #4C4E59 s active_text_color",
"                                      ",
"                                      ",
"                                      ",
"                                      ",
"    ..............................    ",
"    ..............................    ",
"    ..............................    ",
"    ..............................    ",
"    ..............................    ",
"    ..............................    ",
"    ..............................    ",
"    ..............................    ",
"    ..............................    ",
"    ..............................    ",
"    ..............................    ",
"    ...........$$....$$...........    ",
"    ...........$#$..$#$...........    ",
"    ............$#$$#$............    ",
"    .............$##$.............    ",
"    .............$##$.............    ",
"    ............$#$$#$............    ",
"    ...........$#$..$#$...........    ",
"    ...........$$....$$...........    ",
"    ..............................    ",
"    ..............................    ",
"    ..............................    ",
"    ..............................    ",
"    ..............................    ",
"    ..............................    ",
"    ..............................    ",
"    ..............................    ",
"    ..............................    ",
"    ..............................    ",
"    ..............................    ",
"                                      ",
"                                      ",
"                                      ",
"                                      "};
