/* XPM */
static char * shade_active_xpm[] = {
"38 38 5 1",
" 	c None",
".	c #C0C0FF s active_color_2",
"#	c #333333 s active_color_2",
"$	c #626277 s active_color_2",
"+	c #FFFFFF",
"                                      ",
"                                      ",
"                                      ",
"                                      ",
"  ..................................  ",
" .................................... ",
"......................................",
"......................................",
"......................................",
"......................................",
"......................................",
"...........++++++++++++++++...........",
"...........++++++++++++++++...........",
"...........++++++++++++++++...........",
"...........++++++++++++++++...........",
"...........+++++++##+++++++...........",
"...........+++++++##+++++++...........",
"...........+++++++##+++++++...........",
"...........++++$$+##+$$++++...........",
"...........++++$#$##$#$++++...........",
"...........+++++$####$+++++...........",
"...........++++++$##$++++++...........",
"...........+++++++$$+++++++...........",
"...........++++++++++++++++...........",
"...........++++++++++++++++...........",
"...........++++++++++++++++...........",
"...........++++++++++++++++...........",
"......................................",
"......................................",
"......................................",
"......................................",
"......................................",
"......................................",
"......................................",
"......................................",
"......................................",
"......................................",
"......................................"};
