/* XPM */
static char * stick_active_xpm[] = {
"38 38 4 1",
" 	c None",
".	c #C0C0FF s inactive_color_2",
"#	c #333333 s inactive_text_color",
"$	c #626277 s inactive_text_color",
"                                      ",
"                                      ",
"                                      ",
"                                      ",
"    ..............................    ",
"    ..............................    ",
"    ..............................    ",
"    ..............................    ",
"    ..............................    ",
"    ..............................    ",
"    ..............................    ",
"    ..............................    ",
"    ..............................    ",
"    ..............................    ",
"    ..............................    ",
"    .............$##$.............    ",
"    ............######............    ",
"    ...........$######$...........    ",
"    ...........########...........    ",
"    ...........########...........    ",
"    ...........$######$...........    ",
"    ............######............    ",
"    .............$##$.............    ",
"    ..............................    ",
"    ..............................    ",
"    ..............................    ",
"    ..............................    ",
"    ..............................    ",
"    ..............................    ",
"    ..............................    ",
"    ..............................    ",
"    ..............................    ",
"    ..............................    ",
"    ..............................    ",
"                                      ",
"                                      ",
"                                      ",
"                                      "};
