<?xml version="1.0" encoding="UTF-8"?>
<svg version="1.1" viewBox="0 0 88 88" xmlns="http://www.w3.org/2000/svg" xmlns:cc="http://creativecommons.org/ns#" xmlns:dc="http://purl.org/dc/elements/1.1/" xmlns:rdf="http://www.w3.org/1999/02/22-rdf-syntax-ns#">
<metadata>
<rdf:RDF>
<cc:Work rdf:about="">
<dc:format>image/svg+xml</dc:format>
<dc:type rdf:resource="http://purl.org/dc/dcmitype/StillImage"/>
<dc:title/>
</cc:Work>
</rdf:RDF>
</metadata>
<g transform="translate(0 -964.36)" fill="#fff">
<rect x="86" y="1050.4" width="2" height="2" rx="0" ry="0" opacity=".18"/>
<rect x="20" y="1006.4" width="2" height="2" rx="0" ry="0" opacity=".06"/>
<rect x="20" y="984.36" width="2" height="2" rx="0" ry="0" opacity=".06"/>
<rect x="42" y="984.36" width="2" height="2" rx="0" ry="0" opacity=".06"/>
<rect x="42" y="1028.4" width="2" height="2" rx="0" ry="0" opacity=".06"/>
<rect x="42" y="1006.4" width="2" height="2" rx="0" ry="0" opacity=".06"/>
<rect x="64" y="1006.4" width="2" height="2" rx="0" ry="0" opacity=".06"/>
<rect x="64" y="984.36" width="2" height="2" rx="0" ry="0" opacity=".06"/>
<rect x="20" y="1028.4" width="2" height="2" rx="0" ry="0" opacity=".06"/>
<rect x="64" y="1050.4" width="2" height="2" rx="0" ry="0" opacity=".06"/>
<rect x="64" y="1028.4" width="2" height="2" rx="0" ry="0" opacity=".06"/>
<rect x="86" y="1028.4" width="2" height="2" rx="0" ry="0" opacity=".06"/>
<rect x="42" y="1050.4" width="2" height="2" rx="0" ry="0" opacity=".06"/>
<rect x="20" y="1050.4" width="2" height="2" rx="0" ry="0" opacity=".06"/>
<rect x="86" y="1006.4" width="2" height="2" rx="0" ry="0" opacity=".06"/>
<rect x="86" y="984.36" width="2" height="2" rx="0" ry="0" opacity=".06"/>
</g>
</svg>

