<?xml version="1.0" encoding="UTF-8" standalone="no"?>
<svg
   xmlns:dc="http://purl.org/dc/elements/1.1/"
   xmlns:cc="http://creativecommons.org/ns#"
   xmlns:rdf="http://www.w3.org/1999/02/22-rdf-syntax-ns#"
   xmlns:svg="http://www.w3.org/2000/svg"
   xmlns="http://www.w3.org/2000/svg"
   xmlns:sodipodi="http://sodipodi.sourceforge.net/DTD/sodipodi-0.dtd"
   xmlns:inkscape="http://www.inkscape.org/namespaces/inkscape"
   sodipodi:docname="toggle-off.svg"
   inkscape:version="1.0 (4035a4fb49, 2020-05-01)"
   id="svg8"
   version="1.1"
   viewBox="0 0 12.7 6.8791669"
   height="26"
   width="48">
  <defs
     id="defs2" />
  <sodipodi:namedview
     inkscape:document-rotation="0"
     inkscape:window-maximized="1"
     inkscape:window-y="0"
     inkscape:window-x="0"
     inkscape:window-height="1353"
     inkscape:window-width="3440"
     units="px"
     showgrid="false"
     inkscape:current-layer="layer1"
     inkscape:document-units="mm"
     inkscape:cy="20.537254"
     inkscape:cx="0.47289888"
     inkscape:zoom="15.839192"
     inkscape:pageshadow="2"
     inkscape:pageopacity="0.0"
     borderopacity="1.0"
     bordercolor="#666666"
     pagecolor="#ffffff"
     id="base" />
  <metadata
     id="metadata5">
    <rdf:RDF>
      <cc:Work
         rdf:about="">
        <dc:format>image/svg+xml</dc:format>
        <dc:type
           rdf:resource="http://purl.org/dc/dcmitype/StillImage" />
        <dc:title />
      </cc:Work>
    </rdf:RDF>
  </metadata>
  <g
     transform="translate(0,-290.12082)"
     id="layer1"
     inkscape:groupmode="layer"
     inkscape:label="Layer 1">
    <rect
       style="opacity:1;fill:#1b1b1b;fill-opacity:1;stroke:none;stroke-width:0.30235311;stroke-opacity:1"
       id="rect918"
       width="12.7"
       height="6.8791666"
       x="0"
       y="290.12082"
       ry="3.4395833" />
    <rect
       ry="3.4395833"
       y="290.12082"
       x="0"
       height="6.8791666"
       width="12.7"
       id="rect815"
       style="opacity:0.25;fill:#ffffff;fill-opacity:1;stroke:none;stroke-width:0.30235311;stroke-opacity:1" />
    <path
       sodipodi:nodetypes="ccsccsccscccsccsc"
       style="opacity:1;fill:#1b1b1b;fill-opacity:1;stroke-width:0.0817222"
       inkscape:connector-curvature="0"
       id="path39"
       d="m 4.940202,293.0781 -1.6424925,1.49166 c -0.032723,0.0327 -0.081807,0.049 -0.1227096,0.049 -0.049084,0 -0.089986,-0.0163 -0.1227092,-0.049 l -0.886541,-0.8869 c -0.032723,-0.0326 -0.049083,-0.0817 -0.049083,-0.12246 0,-0.0408 0.016362,-0.0898 0.049083,-0.12246 l 0.2817789,-0.28213 c 0.032723,-0.0326 0.081806,-0.049 0.1227094,-0.049 0.049084,0 0.089987,0.0163 0.1227093,0.049 l 0.4820526,0.55578 1.2380048,-1.16054 c 0.032722,-0.0327 0.081807,-0.049 0.1227095,-0.049 0.049085,0 0.089987,0.0163 0.1227093,0.049 l 0.2817785,0.28213 c 0.032722,0.0326 0.049084,0.0816 0.049084,0.12246 0,0.0408 -0.016362,0.0898 -0.049084,0.12246 z"
       class="st2" />
    <circle
       r="2.3812499"
       cy="293.56039"
       cx="3.4395833"
       id="path817"
       style="opacity:1;fill:#1b1b1b;fill-opacity:1;stroke:none;stroke-width:0.31562683;stroke-opacity:1" />
  </g>
</svg>
